<?xml version="1.0" encoding="utf-8"?>
<!-- Generator: Adobe Illustrator 22.0.0, SVG Export Plug-In . SVG Version: 6.00 Build 0)  -->
<svg version="1.1" id="图层_1" xmlns="http://www.w3.org/2000/svg" xmlns:xlink="http://www.w3.org/1999/xlink" x="0px" y="0px"
	 viewBox="0 0 600 600" style="enable-background:new 0 0 600 600;" xml:space="preserve">
<style type="text/css">
	.st0{fill:#0046D3;}
	.st1{fill:#0066D6;}
	.st2{fill:url(#SVGID_1_);}
	.st3{fill:url(#SVGID_2_);}
	.st4{fill:url(#SVGID_3_);}
	.st5{fill:url(#SVGID_4_);}
	.st6{fill:url(#SVGID_5_);}
	.st7{fill:url(#SVGID_6_);}
	.st8{fill:url(#SVGID_7_);}
</style>
<g>
	<path class="st0" d="M519.7,177.8c-24.5-2-57.9,0.4-96.7,6.8c-1.6,0.3-3.2,0.5-4.8,0.8c4.2,4.8,8.1,9.8,11.7,15.1
		c35.6-5.7,66.1-7.7,88.4-5.9c11.2,0.9,20,2.7,26.3,5.4c3.4,1.5,7.8,4,8.9,7.5c1.5,4.7-2.5,12.6-11.1,21.6
		c-10.2,10.7-26.9,23-48.2,35.6c-11.4,6.8-23.9,13.5-37.4,20.2c-40,19.9-88.4,39.2-140.3,55.8c-51.9,16.6-102.5,28.9-146.6,35.9
		c-14.8,2.4-29,4.1-42.2,5.2c-24.7,2.1-45.4,1.7-59.9-1.1c-12.2-2.3-20.1-6.4-21.6-11.1c-1.9-5.9,4.8-16.5,18-28.2
		c15.4-13.7,39.5-29.1,69.6-44.7c3-1.5,6-3.1,9.1-4.6c-0.2-6.4,0.1-12.8,0.7-19.1c-6,2.9-11.8,5.8-17.5,8.7
		c-31.4,16.2-56.7,32.5-73.1,47.1c-19.4,17.2-27.1,32.7-22.8,45.9c6.6,20.8,39.9,28.8,99,23.9c16.2-1.4,33.8-3.7,52.4-6.9
		c42.8-7.3,90.9-19.3,140.1-35c49.1-15.7,95.3-33.9,134.4-52.7c17-8.2,32.7-16.5,46.7-24.8c50.9-30.2,73.4-56.1,66.8-76.9
		C565.2,188.3,548.4,180.1,519.7,177.8z"/>
	<g>
		<path class="st1" d="M252.2,139c-61.5,19.7-102.4,73.7-108.4,134c-0.6,6.3-0.9,12.7-0.7,19.1c0.3,14.6,2.8,29.5,7.4,44.1
			c4.7,14.7,11.3,28.2,19.6,40.3c44.2-7,94.8-19.4,146.6-35.9c51.9-16.6,100.2-35.9,140.3-55.8c-0.3-14.7-2.8-29.5-7.4-44.2
			c-4.7-14.7-11.3-28.2-19.5-40.3c-3.6-5.3-7.5-10.4-11.7-15.1C378.4,139.6,313.7,119.4,252.2,139z"/>
		<path class="st1" d="M181.7,391.8c39.9,45.7,104.6,65.9,166.1,46.3c61.5-19.7,102.4-73.6,108.4-134c-39.1,18.9-85.3,37-134.4,52.7
			C272.7,372.4,224.5,384.4,181.7,391.8z"/>
	</g>
	<linearGradient id="SVGID_1_" gradientUnits="userSpaceOnUse" x1="429.9589" y1="239.411" x2="553.9333" y2="239.411">
		<stop  offset="0.1152" style="stop-color:#53FFFF;stop-opacity:0"/>
		<stop  offset="0.7478" style="stop-color:#53FFFF;stop-opacity:0.5"/>
		<stop  offset="1" style="stop-color:#00FFFF"/>
	</linearGradient>
	<path class="st2" d="M457,284.9c13.5-6.7,26-13.5,37.4-20.2c21.3-12.6,38-25,48.2-35.6c8.6-9,12.7-16.9,11.1-21.6
		c-1.1-3.5-5.5-6-8.9-7.5c-6.3-2.7-15.2-4.5-26.3-5.4c-22.3-1.8-52.8,0.3-88.4,5.9c8.2,12.1,14.9,25.6,19.5,40.3
		C454.2,255.4,456.6,270.3,457,284.9z"/>
	<linearGradient id="SVGID_2_" gradientUnits="userSpaceOnUse" x1="46.0511" y1="337.6628" x2="170.0414" y2="337.6628">
		<stop  offset="0.1152" style="stop-color:#53FFFF;stop-opacity:0"/>
		<stop  offset="0.7478" style="stop-color:#53FFFF;stop-opacity:0.5"/>
		<stop  offset="1" style="stop-color:#00FFFF"/>
	</linearGradient>
	<path class="st3" d="M143,292.2c-3.1,1.5-6.1,3.1-9.1,4.6c-30.2,15.6-54.2,31-69.6,44.7c-13.2,11.7-19.9,22.2-18,28.2
		c1.5,4.7,9.4,8.8,21.6,11.1c14.5,2.8,35.2,3.1,59.9,1.1c13.2-1.1,27.3-2.9,42.2-5.2c-8.2-12.1-14.9-25.6-19.6-40.3
		C145.8,321.7,143.4,306.8,143,292.2z"/>
	<g>
		
			<linearGradient id="SVGID_3_" gradientUnits="userSpaceOnUse" x1="-2266.6184" y1="-2283.5527" x2="-1954.8636" y2="-2283.5527" gradientTransform="matrix(0.7216 -0.6923 0.6923 0.7216 3387.1929 456.0251)">
			<stop  offset="0.1152" style="stop-color:#53FFFF;stop-opacity:0"/>
			<stop  offset="0.7478" style="stop-color:#53FFFF;stop-opacity:0.5"/>
			<stop  offset="1" style="stop-color:#00FFFF"/>
		</linearGradient>
		<path class="st4" d="M252.2,139c-61.5,19.7-102.4,73.7-108.4,134c-0.6,6.3-0.9,12.7-0.7,19.1c0.3,14.6,2.8,29.5,7.4,44.1
			c4.7,14.7,11.3,28.2,19.6,40.3c44.2-7,94.8-19.4,146.6-35.9c51.9-16.6,100.2-35.9,140.3-55.8c-0.3-14.7-2.8-29.5-7.4-44.2
			c-4.7-14.7-11.3-28.2-19.5-40.3c-3.6-5.3-7.5-10.4-11.7-15.1C378.4,139.6,313.7,119.4,252.2,139z"/>
		
			<linearGradient id="SVGID_4_" gradientUnits="userSpaceOnUse" x1="-2268.8472" y1="-2183.2759" x2="-2009.8293" y2="-2183.2759" gradientTransform="matrix(0.7216 -0.6923 0.6923 0.7216 3387.1929 456.0251)">
			<stop  offset="0.1152" style="stop-color:#53FFFF;stop-opacity:0"/>
			<stop  offset="0.7478" style="stop-color:#53FFFF;stop-opacity:0.5"/>
			<stop  offset="1" style="stop-color:#00FFFF"/>
		</linearGradient>
		<path class="st5" d="M181.7,391.8c39.9,45.7,104.6,65.9,166.1,46.3c61.5-19.7,102.4-73.6,108.4-134c-39.1,18.9-85.3,37-134.4,52.7
			C272.7,372.4,224.5,384.4,181.7,391.8z"/>
	</g>
	
		<linearGradient id="SVGID_5_" gradientUnits="userSpaceOnUse" x1="-2594.4734" y1="-2258.0593" x2="-1629.2606" y2="-2258.0593" gradientTransform="matrix(0.7216 -0.6923 0.6923 0.7216 3387.1929 456.0251)">
		<stop  offset="0.1152" style="stop-color:#53FFFF;stop-opacity:0"/>
		<stop  offset="0.7478" style="stop-color:#53FFFF;stop-opacity:0.5"/>
		<stop  offset="1" style="stop-color:#00FFFF"/>
	</linearGradient>
	<path class="st6" d="M519.7,177.8c-24.5-2-57.9,0.4-96.7,6.8c-1.6,0.3-3.2,0.5-4.8,0.8c4.2,4.8,8.1,9.8,11.7,15.1
		c35.6-5.7,66.1-7.7,88.4-5.9c11.2,0.9,20,2.7,26.3,5.4c3.4,1.5,7.8,4,8.9,7.5c1.5,4.7-2.5,12.6-11.1,21.6
		c-10.2,10.7-26.9,23-48.2,35.6c-11.4,6.8-23.9,13.5-37.4,20.2c-40,19.9-88.4,39.2-140.3,55.8c-51.9,16.6-102.5,28.9-146.6,35.9
		c-14.8,2.4-29,4.1-42.2,5.2c-24.7,2.1-45.4,1.7-59.9-1.1c-12.2-2.3-20.1-6.4-21.6-11.1c-1.9-5.9,4.8-16.5,18-28.2
		c15.4-13.7,39.5-29.1,69.6-44.7c3-1.5,6-3.1,9.1-4.6c-0.2-6.4,0.1-12.8,0.7-19.1c-6,2.9-11.8,5.8-17.5,8.7
		c-31.4,16.2-56.7,32.5-73.1,47.1c-19.4,17.2-27.1,32.7-22.8,45.9c6.6,20.8,39.9,28.8,99,23.9c16.2-1.4,33.8-3.7,52.4-6.9
		c42.8-7.3,90.9-19.3,140.1-35c49.1-15.7,95.3-33.9,134.4-52.7c17-8.2,32.7-16.5,46.7-24.8c50.9-30.2,73.4-56.1,66.8-76.9
		C565.2,188.3,548.4,180.1,519.7,177.8z"/>
	
		<linearGradient id="SVGID_6_" gradientUnits="userSpaceOnUse" x1="-2213.2009" y1="-2299.2065" x2="-2151.2769" y2="-2299.2065" gradientTransform="matrix(0.7216 -0.6923 0.6923 0.7216 3387.1929 456.0251)">
		<stop  offset="0.1152" style="stop-color:#53FFFF;stop-opacity:0"/>
		<stop  offset="0.7478" style="stop-color:#53FFFF;stop-opacity:0.5"/>
		<stop  offset="1" style="stop-color:#00FFFF"/>
	</linearGradient>
	<circle class="st7" cx="220.7" cy="307.6" r="31"/>
	
		<linearGradient id="SVGID_7_" gradientUnits="userSpaceOnUse" x1="-2068.6934" y1="-2265.4683" x2="-2023.6863" y2="-2265.4683" gradientTransform="matrix(0.7216 -0.6923 0.6923 0.7216 3387.1929 456.0251)">
		<stop  offset="0.1152" style="stop-color:#53FFFF;stop-opacity:0"/>
		<stop  offset="0.7478" style="stop-color:#53FFFF;stop-opacity:0.5"/>
		<stop  offset="1" style="stop-color:#00FFFF"/>
	</linearGradient>
	<circle class="st8" cx="342.3" cy="237.7" r="22.5"/>
</g>
</svg>
