<?xml version="1.0" encoding="UTF-8"?>
<svg width="695px" height="627px" viewBox="0 0 695 627" version="1.1" xmlns="http://www.w3.org/2000/svg" xmlns:xlink="http://www.w3.org/1999/xlink">
    <!-- Generator: Sketch 60.1 (88133) - https://sketch.com -->
    <title>笔记</title>
    <desc>Created with Sketch.</desc>
    <defs>
        <path d="M0,26.3379145 C161.798972,26.9017757 253.765514,18.1460101 275.899626,0.0706176457 C309.675682,191.111449 348.050846,318.169232 391.02512,381.243966 C351.226961,400.779462 304.149065,407.330736 249.791433,400.89779 C168.254986,391.24837 134.417732,369.35184 73.9147155,297.391123 C33.5793709,249.417311 8.94113243,159.066242 0,26.3379145 Z" id="path-1"></path>
        <path d="M42.5884761,259.303813 C190.537344,120.039175 277.007005,38.6992035 301.997461,15.2838994 C339.483144,-19.8390566 398.597926,9.83954082 348.498653,61.0095128 C315.099138,95.1228275 227.711199,176.622329 86.3348356,305.508018 L0.00364473278,344.282308 L42.5884761,259.303813 Z" id="path-3"></path>
    </defs>
    <g id="页面-1" stroke="none" stroke-width="1" fill="none" fill-rule="evenodd">
        <g id="画板" transform="translate(-2319.000000, -6183.000000)">
            <g id="笔记" transform="translate(2319.000000, 6183.000000)">
                <g id="文件页备份" transform="translate(0.000000, 78.000000)">
                    <polygon id="路径-366" fill="#4F9BFF" points="233.728795 44.5443828 0 88.2259673 202.305642 525.204924 433.940553 486.20925"></polygon>
                    <polygon id="路径-362" fill="#FFC78E" points="19.07431 33.253865 195.600162 549 515.006371 499.332411 346.409955 15.9902913"></polygon>
                    <path d="M152.212994,175.794333 C164.258254,278.319947 183.941504,348.576734 211.262747,386.564695 C252.24461,443.546635 314.565439,489.908847 433.940553,469.048544 L167.85986,183.722533 L152.212994,175.794333 Z" id="路径-51" fill="#FFAC57"></path>
                    <polygon id="路径-363" fill="#A2FED2" points="48.0672613 11.0520593 76.2806407 10.6601942 90.7937157 45.4473904 63.5310763 47.9708738"></polygon>
                    <polygon id="路径-363备份" fill="#82D7FF" points="85.4529089 1.51490471e-13 115.227955 1.51490471e-13 133.52017 42.6407767 105.436767 42.6407767"></polygon>
                    <g id="路径-16" transform="translate(143.055561, 63.509826)">
                        <mask id="mask-2" fill="white">
                            <use xlink:href="#path-1"></use>
                        </mask>
                        <use id="蒙版" fill="#FFFFFF" xlink:href="#path-1"></use>
                        <path d="M174.448233,21.4198616 C205.120756,25.630763 228.663218,38.2941828 245.075617,59.4101208 C257.066826,74.837824 196.44932,182.219304 208.951148,206.667339 C275.949811,42.0361089 333.972839,237.967892 361.650682,325.587261 L362.114247,240.842528 L273.759152,-34.1942922 L174.448233,21.4198616 Z" fill="#F6F7FF" mask="url(#mask-2)"></path>
                        <path d="M59.2545695,129.228949 L63.6623554,128.166571 C96.2254365,120.447233 117.64931,118.320844 128.295477,121.907288 C140.689534,126.082555 139.292406,137.109411 125.755581,153.172835 L124.928818,154.14267 C105.286474,176.926288 93.8713808,198.463384 94.7697507,210.149623 C95.6211785,221.225227 108.908336,221.929815 135.220501,208.651162 L150.28086,201.108515 C177.49688,187.609018 191.849326,181.374763 202.413096,178.793775 L203.082321,178.633958 C219.813577,174.731696 223.669077,182.94335 213.363455,201.960198 L212.797814,202.989286 C199.258745,227.285873 210.396854,245.936117 247.440283,259.808022 C248.556495,260.226017 249.123096,261.471303 248.705822,262.589445 C248.288548,263.707587 247.045412,264.275168 245.9292,263.857173 C207.230431,249.365381 194.336925,228.464949 208.42704,201.988696 L210.087774,198.950062 C218.307379,183.649012 216.216966,180.008998 204.060892,182.844182 L202.739014,183.16796 C191.080676,186.156293 174.010692,193.946719 139.190688,211.488856 L137.162061,212.511757 C108.528529,226.961907 91.6652903,226.067688 90.4671174,210.48153 C89.4759983,197.588783 100.811582,175.88077 120.348263,152.854193 L121.662813,151.317216 C134.286115,136.67515 135.4543,128.87966 126.919939,126.004634 C116.86297,122.616677 94.5121211,125.045652 60.279267,133.428147 C59.1216925,133.711599 57.9539065,133.001359 57.6709441,131.841783 C57.3879817,130.682207 58.0969949,129.512401 59.2545695,129.228949 Z" id="路径-22" fill="#A7A7A7" fill-rule="nonzero" mask="url(#mask-2)"></path>
                    </g>
                    <path d="M323.194544,384.71173 C263.298348,372.555444 248.717574,365.048505 201.067034,338.805906 C260.671701,432.012742 338.296208,474.676769 433.940553,466.797987 C373.704677,442.85327 356.867573,425.649896 323.194544,384.71173 Z" id="路径-365" fill="#D1D3FB"></path>
                </g>
                <g id="笔备份" transform="translate(327.000000, 0.000000)">
                    <mask id="mask-4" fill="white">
                        <use xlink:href="#path-3"></use>
                    </mask>
                    <use id="蒙版" fill="#FFFFFF" xlink:href="#path-3"></use>
                    <path d="M67.8572814,306.150712 L345.361999,47.1871887 C366.366896,19.6142523 354.107425,2.17566136 308.583586,-5.12858424 C319.773762,-13.833251 325.294861,-21.3799962 336.600698,-27.5293385 C353.123175,-16.5036282 374.72436,-3.09334945 401.404253,12.7014977 L103.307077,355.314443 L67.8572814,306.150712 Z" id="路径-14" fill="#D1D3FB" mask="url(#mask-4)"></path>
                    <path d="M264.568891,25.7678661 C302.958886,37.132123 325.724045,62.8127942 331.888993,101.747151 L332.214406,103.9238 L316.186961,106.219719 C311.526576,73.1130547 293.779397,52.0714009 261.975454,42.0379223 L260.010702,41.4373732 L264.568891,25.7678661 Z" id="路径-403" fill="#B5B7D8" fill-rule="nonzero" mask="url(#mask-4)"></path>
                    <path d="M25.8826884,253.505326 C60.3151986,260.118331 82.9595084,284.674299 93.8156179,327.173228 L-16.2469787,364.944723 L25.8826884,253.505326 Z" id="路径-404" fill="#B5B7D8" mask="url(#mask-4)"></path>
                    <path d="M5.37356727,300.536402 C28.5490279,313.673091 43.487961,329.842362 50.1903664,349.044215 L-21.5843137,374.323218 L5.37356727,300.536402 Z" id="路径-405" fill="#3D3D3D" mask="url(#mask-4)"></path>
                </g>
            </g>
        </g>
    </g>
</svg>